<svg width="7" height="8" viewBox="0 0 7 8" fill="none" xmlns="http://www.w3.org/2000/svg">
<path fill-rule="evenodd" clip-rule="evenodd" d="M2.88913 1.28802C2.63453 1.35522 2.39674 1.46042 2.23111 1.60602C1.7789 2.00402 1.59482 2.54322 1.59482 3.51522C1.59482 4.20802 1.19058 4.86402 0.899494 5.28883C0.836357 5.38162 0.816678 5.47002 0.820368 5.52322C0.822008 5.54722 0.827747 5.55842 0.830207 5.56243C0.831847 5.56523 0.836767 5.57282 0.856446 5.58322C1.14015 5.73123 1.56817 5.83922 2.06302 5.90762C2.53933 5.96999 3.01942 6.00086 3.5 6.00002C3.60873 6.00002 3.71301 6.04217 3.7899 6.11718C3.86679 6.1922 3.90998 6.29394 3.90998 6.40002C3.90998 6.50611 3.86679 6.60785 3.7899 6.68287C3.71301 6.75788 3.60873 6.80002 3.5 6.80002C3.03754 6.80002 2.48161 6.77402 1.94781 6.70003C1.42222 6.62682 0.880635 6.50282 0.469835 6.28883C0.167679 6.13123 0.021726 5.85682 0.00245696 5.57722C-0.0164021 5.31362 0.0750234 5.05323 0.217697 4.84482C0.511653 4.41523 0.77486 3.94122 0.77486 3.51522C0.77486 2.45082 0.97657 1.63242 1.68215 1.01202C1.97938 0.750425 2.35287 0.601224 2.67389 0.516024C2.94307 0.443192 3.22069 0.40421 3.5 0.400024C3.60873 0.400024 3.71301 0.442167 3.7899 0.517182C3.86679 0.592196 3.90998 0.693938 3.90998 0.800024C3.90998 0.906111 3.86679 1.00785 3.7899 1.08287C3.71301 1.15788 3.60873 1.20002 3.5 1.20002C3.37455 1.20002 3.14086 1.22082 2.88913 1.28802Z" fill="white"/>
<path fill-rule="evenodd" clip-rule="evenodd" d="M4.11087 1.28802C4.36547 1.35522 4.60326 1.46042 4.76889 1.60602C5.2211 2.00402 5.40518 2.54322 5.40518 3.51522C5.40518 4.20802 5.80942 4.86402 6.10051 5.28883C6.16364 5.38163 6.18332 5.47002 6.17963 5.52322C6.17984 5.5369 6.17645 5.55039 6.16979 5.56243C6.16815 5.56523 6.16323 5.57282 6.14355 5.58322C5.85985 5.73122 5.43183 5.83922 4.93698 5.90762C4.46067 5.96999 3.98058 6.00086 3.5 6.00002C3.39127 6.00002 3.28699 6.04217 3.2101 6.11718C3.13321 6.1922 3.09002 6.29394 3.09002 6.40002C3.09002 6.50611 3.13321 6.60785 3.2101 6.68287C3.28699 6.75788 3.39127 6.80002 3.5 6.80002C3.96246 6.80002 4.51798 6.77403 5.05219 6.70003C5.57778 6.62683 6.11936 6.50283 6.53017 6.28883C6.83232 6.13123 6.97827 5.85682 6.99754 5.57722C7.0164 5.31362 6.92498 5.05322 6.7823 4.84482C6.48835 4.41522 6.22514 3.94122 6.22514 3.51522C6.22514 2.45082 6.02343 1.63242 5.31785 1.01202C5.02062 0.750425 4.64713 0.601224 4.32611 0.516024C4.05693 0.443192 3.77931 0.40421 3.5 0.400024C3.39127 0.400024 3.28699 0.442167 3.2101 0.517182C3.13321 0.592196 3.09002 0.693938 3.09002 0.800024C3.09002 0.906111 3.13321 1.00785 3.2101 1.08287C3.28699 1.15788 3.39127 1.20002 3.5 1.20002C3.62545 1.20002 3.85914 1.22082 4.11087 1.28802Z" fill="white"/>
<path d="M4.58522 0.672C4.58522 0.95 4.01289 0.6888 3.56027 0.6888C3.10765 0.6888 2.53532 0.95 2.53532 0.6716C2.53532 0.3936 2.9453 0 3.56027 0C4.17524 0 4.58522 0.3936 4.58522 0.672Z" fill="white"/>
<path fill-rule="evenodd" clip-rule="evenodd" d="M2.68004 6.40002C2.68004 6.6122 2.76643 6.81568 2.9202 6.96571C3.07398 7.11574 3.28254 7.20002 3.5 7.20002C3.71747 7.20002 3.92603 7.11574 4.0798 6.96571C4.23357 6.81568 4.31996 6.6122 4.31996 6.40002H5.13992C5.13992 6.82437 4.96715 7.23134 4.6596 7.5314C4.35206 7.83145 3.93494 8.00002 3.5 8.00002C3.06507 8.00002 2.64795 7.83145 2.3404 7.5314C2.03286 7.23134 1.86008 6.82437 1.86008 6.40002H2.68004Z" fill="white"/>
</svg>
